<?xml version="1.0" encoding="UTF-8"?><svg id="Branding" xmlns="http://www.w3.org/2000/svg" viewBox="0 0 664.32 307.24"><defs><style>.cls-1{fill:#f6f3f1;}</style></defs><path class="cls-1" d="m58.41,182.19c.4-1.19,1.59-1.39,2.58-.79,7.73,4.56,16.05,8.12,22.79,8.12,4.16.4,6.94-1.98,6.94-4.95,0-10.11-43.4-6.93-43.4-44.19,0-21.2,18.03-35.47,44.98-35.47,12.88,0,28.34,4.56,38.84,11.29.99.79,1.59,1.78,1.19,2.77l-10.11,23.38c-.4,1.19-1.59,1.39-2.58.79-7.73-4.95-16.05-8.12-22.79-8.12-4.16-.4-6.94,1.58-6.94,4.76,0,10.5,43.4,6.74,43.4,44.39,0,21.2-17.44,35.47-43.79,35.47-12.88,0-28.93-4.56-40.03-11.29-.99-.99-1.59-1.98-1.19-3.17l10.11-22.99Z"/><path class="cls-1" d="m239.52,107.68c1.59,0,2.97,1.39,2.97,2.97v103.24c0,1.39-1.39,2.77-2.97,2.77h-22.39c-1.59,0-2.58-1.39-3.17-2.97l-2.97-7.13c-7.13,7.93-18.82,13.08-31.7,13.08-25.76,0-41.02-16.45-41.02-43.4v-65.59c0-1.58,1.39-2.97,2.97-2.97h34.87c1.59,0,2.97,1.39,2.97,2.97v60.63c0,6.74,4.16,11.29,10.5,11.29,7.73,0,12.09-6.34,12.09-6.34v-65.59c0-1.58,1.39-2.97,2.97-2.97h34.87Z"/><path class="cls-1" d="m259.73,182.19c.4-1.19,1.59-1.39,2.58-.79,7.73,4.56,16.05,8.12,22.79,8.12,4.16.4,6.94-1.98,6.94-4.95,0-10.11-43.4-6.93-43.4-44.19,0-21.2,18.03-35.47,44.98-35.47,12.88,0,28.34,4.56,38.84,11.29.99.79,1.58,1.78,1.19,2.77l-10.11,23.38c-.4,1.19-1.59,1.39-2.58.79-7.73-4.95-16.05-8.12-22.79-8.12-4.16-.4-6.94,1.58-6.94,4.76,0,10.5,43.39,6.74,43.39,44.39,0,21.2-17.44,35.47-43.79,35.47-12.88,0-28.93-4.56-40.03-11.29-.99-.99-1.59-1.98-1.19-3.17l10.11-22.99Z"/><path class="cls-1" d="m435.1,205.18c.59.99,0,2.38-1.19,3.37-10.7,6.74-25.36,11.29-36.66,11.29-35.87,0-59.64-22.99-59.64-57.46s23.78-57.46,59.64-57.46c11.29,0,25.96,4.56,36.66,11.29,1.19.99,1.78,2.38,1.19,3.37l-11.49,24.17c-.79,1.58-2.18,2.18-3.57,1.19-4.95-3.57-12.48-5.94-19.02-5.94-14.46,0-23.98,9.31-23.98,23.38s9.51,23.38,23.98,23.38c6.54,0,14.07-2.38,19.02-5.94,1.39-.99,2.77-.4,3.57,1.19l11.49,24.17Z"/><path class="cls-1" d="m539.13,205.57c.4,1.39,0,2.18-1.39,2.97-10.5,6.94-25.76,11.1-41.02,11.1-35.07,0-58.45-22.99-58.45-57.27s22.99-57.46,57.46-57.46,52.31,21.2,52.31,57.27c0,2.97-.2,5.94-.79,8.92-.2,1.58-1.19,2.38-2.97,2.38h-63.61s0,12.48,16.64,12.48c10.11,0,21.4-2.38,30.32-6.54,1.39-.59,2.58.2,2.97,1.58l8.52,24.57Zm-30.52-52.91c0-8.72-5.35-14.47-13.28-14.47-8.92,0-14.86,5.75-14.86,14.47h28.14Z"/><path class="cls-1" d="m592.04,73.01c1.58,0,2.97,1.39,2.97,2.77v137.91c0,1.58-1.39,2.97-2.97,2.97h-34.88c-1.58,0-2.97-1.39-2.97-2.97V75.78c0-1.39,1.39-2.77,2.97-2.77h34.88Z"/><path class="cls-1" d="m619.19,219.44c-10.5,0-17.44-6.54-17.44-16.25s6.94-16.65,17.44-16.65,17.44,6.74,17.44,16.65-6.94,16.25-17.44,16.25Z"/></svg>